<svg xmlns="http://www.w3.org/2000/svg" xmlns:xlink="http://www.w3.org/1999/xlink" width="100" zoomAndPan="magnify" viewBox="0 0 75 30.000001" height="40" preserveAspectRatio="xMidYMid meet" version="1.0"><defs><g/><clipPath id="8a7b98da4f"><path d="M 18.273438 12 L 23 12 L 23 17.105469 L 18.273438 17.105469 Z M 18.273438 12 " clip-rule="nonzero"/></clipPath><clipPath id="efc963dc98"><path d="M 18.273438 10 L 23 10 L 23 16 L 18.273438 16 Z M 18.273438 10 " clip-rule="nonzero"/></clipPath><clipPath id="0c6762a109"><path d="M 21 9.414062 L 23.042969 9.414062 L 23.042969 12 L 21 12 Z M 21 9.414062 " clip-rule="nonzero"/></clipPath></defs><g fill="#000000" fill-opacity="1"><g transform="translate(8.761947, 16.371713)"><g><path d="M 0.65625 0 L 0.65625 -5.015625 L 1.796875 -5.015625 L 1.90625 -4.34375 C 2.070312 -4.582031 2.285156 -4.773438 2.546875 -4.921875 C 2.816406 -5.066406 3.128906 -5.140625 3.484375 -5.140625 C 4.253906 -5.140625 4.800781 -4.835938 5.125 -4.234375 C 5.300781 -4.515625 5.539062 -4.734375 5.84375 -4.890625 C 6.15625 -5.054688 6.492188 -5.140625 6.859375 -5.140625 C 7.515625 -5.140625 8.015625 -4.941406 8.359375 -4.546875 C 8.710938 -4.160156 8.890625 -3.585938 8.890625 -2.828125 L 8.890625 0 L 7.609375 0 L 7.609375 -2.703125 C 7.609375 -3.140625 7.523438 -3.472656 7.359375 -3.703125 C 7.191406 -3.929688 6.9375 -4.046875 6.59375 -4.046875 C 6.238281 -4.046875 5.953125 -3.914062 5.734375 -3.65625 C 5.523438 -3.40625 5.421875 -3.050781 5.421875 -2.59375 L 5.421875 0 L 4.140625 0 L 4.140625 -2.703125 C 4.140625 -3.140625 4.050781 -3.472656 3.875 -3.703125 C 3.707031 -3.929688 3.453125 -4.046875 3.109375 -4.046875 C 2.765625 -4.046875 2.484375 -3.914062 2.265625 -3.65625 C 2.054688 -3.40625 1.953125 -3.050781 1.953125 -2.59375 L 1.953125 0 Z M 0.65625 0 "/></g></g></g><g fill="#000000" fill-opacity="1"><g transform="translate(17.68106, 16.371713)"><g/></g></g><g fill="#000000" fill-opacity="1"><g transform="translate(19.531349, 16.371713)"><g/></g></g><g fill="#000000" fill-opacity="1"><g transform="translate(21.381638, 16.371713)"><g/></g></g><g fill="#000000" fill-opacity="1"><g transform="translate(23.232974, 16.371713)"><g><path d="M 0.65625 2.21875 L 0.65625 -5.015625 L 1.8125 -5.015625 L 1.953125 -4.296875 C 2.109375 -4.515625 2.320312 -4.707031 2.59375 -4.875 C 2.863281 -5.050781 3.207031 -5.140625 3.625 -5.140625 C 4.101562 -5.140625 4.523438 -5.023438 4.890625 -4.796875 C 5.265625 -4.566406 5.554688 -4.25 5.765625 -3.84375 C 5.984375 -3.445312 6.09375 -3 6.09375 -2.5 C 6.09375 -1.988281 5.984375 -1.535156 5.765625 -1.140625 C 5.554688 -0.753906 5.265625 -0.445312 4.890625 -0.21875 C 4.523438 0.0078125 4.101562 0.125 3.625 0.125 C 3.25 0.125 2.921875 0.0546875 2.640625 -0.078125 C 2.359375 -0.222656 2.128906 -0.425781 1.953125 -0.6875 L 1.953125 2.21875 Z M 3.359375 -1.015625 C 3.765625 -1.015625 4.101562 -1.148438 4.375 -1.421875 C 4.644531 -1.703125 4.78125 -2.0625 4.78125 -2.5 C 4.78125 -2.9375 4.644531 -3.296875 4.375 -3.578125 C 4.101562 -3.859375 3.765625 -4 3.359375 -4 C 2.941406 -4 2.597656 -3.859375 2.328125 -3.578125 C 2.066406 -3.304688 1.9375 -2.945312 1.9375 -2.5 C 1.9375 -2.0625 2.066406 -1.703125 2.328125 -1.421875 C 2.597656 -1.148438 2.941406 -1.015625 3.359375 -1.015625 Z M 3.359375 -1.015625 "/></g></g></g><g fill="#000000" fill-opacity="1"><g transform="translate(29.269305, 16.371713)"><g/></g></g><g fill="#000000" fill-opacity="1"><g transform="translate(31.119594, 16.371713)"><g><path d="M 0.65625 0 L 0.65625 -5.015625 L 1.796875 -5.015625 L 1.90625 -4.34375 C 2.070312 -4.582031 2.285156 -4.773438 2.546875 -4.921875 C 2.816406 -5.066406 3.128906 -5.140625 3.484375 -5.140625 C 4.253906 -5.140625 4.800781 -4.835938 5.125 -4.234375 C 5.300781 -4.515625 5.539062 -4.734375 5.84375 -4.890625 C 6.15625 -5.054688 6.492188 -5.140625 6.859375 -5.140625 C 7.515625 -5.140625 8.015625 -4.941406 8.359375 -4.546875 C 8.710938 -4.160156 8.890625 -3.585938 8.890625 -2.828125 L 8.890625 0 L 7.609375 0 L 7.609375 -2.703125 C 7.609375 -3.140625 7.523438 -3.472656 7.359375 -3.703125 C 7.191406 -3.929688 6.9375 -4.046875 6.59375 -4.046875 C 6.238281 -4.046875 5.953125 -3.914062 5.734375 -3.65625 C 5.523438 -3.40625 5.421875 -3.050781 5.421875 -2.59375 L 5.421875 0 L 4.140625 0 L 4.140625 -2.703125 C 4.140625 -3.140625 4.050781 -3.472656 3.875 -3.703125 C 3.707031 -3.929688 3.453125 -4.046875 3.109375 -4.046875 C 2.765625 -4.046875 2.484375 -3.914062 2.265625 -3.65625 C 2.054688 -3.40625 1.953125 -3.050781 1.953125 -2.59375 L 1.953125 0 Z M 0.65625 0 "/></g></g></g><g fill="#000000" fill-opacity="1"><g transform="translate(40.037621, 16.371713)"><g><path d="M 1.28125 2.21875 L 2.453125 -0.328125 L 2.140625 -0.328125 L 0.1875 -5.015625 L 1.59375 -5.015625 L 3 -1.484375 L 4.46875 -5.015625 L 5.84375 -5.015625 L 2.65625 2.21875 Z M 1.28125 2.21875 "/></g></g></g><g fill="#000000" fill-opacity="1"><g transform="translate(45.517834, 16.371713)"><g/></g></g><g fill="#000000" fill-opacity="1"><g transform="translate(47.368122, 16.371713)"><g><path d="M 2.890625 0 C 2.367188 0 1.945312 -0.125 1.625 -0.375 C 1.3125 -0.632812 1.15625 -1.09375 1.15625 -1.75 L 1.15625 -3.9375 L 0.296875 -3.9375 L 0.296875 -5.015625 L 1.15625 -5.015625 L 1.296875 -6.359375 L 2.453125 -6.359375 L 2.453125 -5.015625 L 3.796875 -5.015625 L 3.796875 -3.9375 L 2.453125 -3.9375 L 2.453125 -1.734375 C 2.453125 -1.492188 2.503906 -1.328125 2.609375 -1.234375 C 2.710938 -1.148438 2.890625 -1.109375 3.140625 -1.109375 L 3.765625 -1.109375 L 3.765625 0 Z M 2.890625 0 "/></g></g></g><g fill="#000000" fill-opacity="1"><g transform="translate(51.068761, 16.371713)"><g><path d="M 3.0625 0.125 C 2.570312 0.125 2.132812 0.015625 1.75 -0.203125 C 1.363281 -0.429688 1.054688 -0.742188 0.828125 -1.140625 C 0.609375 -1.535156 0.5 -1.988281 0.5 -2.5 C 0.5 -3.019531 0.613281 -3.476562 0.84375 -3.875 C 1.070312 -4.269531 1.378906 -4.578125 1.765625 -4.796875 C 2.148438 -5.023438 2.585938 -5.140625 3.078125 -5.140625 C 3.554688 -5.140625 3.988281 -5.023438 4.375 -4.796875 C 4.757812 -4.578125 5.0625 -4.269531 5.28125 -3.875 C 5.507812 -3.476562 5.625 -3.019531 5.625 -2.5 C 5.625 -1.988281 5.507812 -1.535156 5.28125 -1.140625 C 5.0625 -0.742188 4.753906 -0.429688 4.359375 -0.203125 C 3.972656 0.015625 3.539062 0.125 3.0625 0.125 Z M 3.0625 -1 C 3.394531 -1 3.6875 -1.125 3.9375 -1.375 C 4.1875 -1.632812 4.3125 -2.007812 4.3125 -2.5 C 4.3125 -3 4.1875 -3.375 3.9375 -3.625 C 3.6875 -3.882812 3.398438 -4.015625 3.078125 -4.015625 C 2.734375 -4.015625 2.4375 -3.882812 2.1875 -3.625 C 1.9375 -3.375 1.8125 -3 1.8125 -2.5 C 1.8125 -2.007812 1.9375 -1.632812 2.1875 -1.375 C 2.4375 -1.125 2.726562 -1 3.0625 -1 Z M 3.0625 -1 "/></g></g></g><g fill="#000000" fill-opacity="1"><g transform="translate(56.639975, 16.371713)"><g><path d="M 2.53125 0.125 C 1.90625 0.125 1.421875 -0.0664062 1.078125 -0.453125 C 0.742188 -0.847656 0.578125 -1.425781 0.578125 -2.1875 L 0.578125 -5.015625 L 1.859375 -5.015625 L 1.859375 -2.3125 C 1.859375 -1.875 1.945312 -1.539062 2.125 -1.3125 C 2.300781 -1.082031 2.578125 -0.96875 2.953125 -0.96875 C 3.304688 -0.96875 3.597656 -1.09375 3.828125 -1.34375 C 4.066406 -1.601562 4.1875 -1.960938 4.1875 -2.421875 L 4.1875 -5.015625 L 5.484375 -5.015625 L 5.484375 0 L 4.34375 0 L 4.234375 -0.84375 C 4.078125 -0.550781 3.851562 -0.316406 3.5625 -0.140625 C 3.269531 0.0351562 2.925781 0.125 2.53125 0.125 Z M 2.53125 0.125 "/></g></g></g><g fill="#000000" fill-opacity="1"><g transform="translate(62.231412, 16.371713)"><g><path d="M 0.65625 0 L 0.65625 -5.015625 L 1.8125 -5.015625 L 1.9375 -4.078125 C 2.113281 -4.398438 2.359375 -4.65625 2.671875 -4.84375 C 2.984375 -5.039062 3.351562 -5.140625 3.78125 -5.140625 L 3.78125 -3.765625 L 3.421875 -3.765625 C 3.140625 -3.765625 2.882812 -3.722656 2.65625 -3.640625 C 2.4375 -3.554688 2.265625 -3.40625 2.140625 -3.1875 C 2.015625 -2.96875 1.953125 -2.664062 1.953125 -2.28125 L 1.953125 0 Z M 0.65625 0 "/></g></g></g><g clip-path="url(#8a7b98da4f)"><path fill="#ff3131" d="M 22.046875 13.683594 C 21.996094 13.796875 21.941406 13.90625 21.878906 14.007812 C 21.824219 14.300781 21.671875 14.613281 21.398438 14.929688 C 20.78125 15.636719 19.664062 15.660156 18.949219 15.359375 C 19.570312 16.359375 20.613281 17.175781 20.613281 17.175781 C 20.613281 17.175781 22.953125 15.347656 22.953125 13.472656 C 22.953125 12.9375 22.773438 12.445312 22.46875 12.050781 C 22.398438 12.671875 22.257812 13.21875 22.046875 13.683594 Z M 22.046875 13.683594 " fill-opacity="1" fill-rule="nonzero"/></g><g clip-path="url(#efc963dc98)"><path fill="#ff3131" d="M 20.070312 15.046875 C 20.4375 15.039062 20.78125 14.917969 21.085938 14.691406 C 21.25 14.570312 21.402344 14.421875 21.539062 14.242188 C 21.675781 14.0625 21.796875 13.855469 21.90625 13.617188 C 22.117188 13.148438 22.265625 12.566406 22.328125 11.882812 C 22.359375 11.574219 22.371094 11.242188 22.363281 10.886719 C 22.292969 11.160156 22.214844 11.429688 22.128906 11.691406 C 21.984375 12.132812 21.816406 12.542969 21.621094 12.890625 C 21.324219 13.425781 20.964844 13.800781 20.539062 13.867188 C 19.457031 14.039062 19.390625 12.433594 20.546875 12.371094 C 20.898438 12.351562 21.253906 12.5 21.511719 12.765625 C 21.675781 12.460938 21.832031 12.082031 21.980469 11.640625 C 21.984375 11.625 21.992188 11.605469 21.996094 11.589844 C 21.609375 11.304688 21.132812 11.136719 20.613281 11.136719 C 19.324219 11.136719 18.273438 12.183594 18.273438 13.472656 C 18.273438 13.492188 18.273438 13.578125 18.28125 13.625 C 18.386719 14.605469 19.15625 15.074219 20.070312 15.046875 Z M 20.070312 15.046875 " fill-opacity="1" fill-rule="nonzero"/></g><g clip-path="url(#0c6762a109)"><path fill="#ff3131" d="M 22.386719 10.242188 L 22.570312 11.148438 L 23.105469 11.179688 L 22.433594 9.414062 L 21.5625 11.089844 L 22.097656 11.121094 Z M 22.386719 10.242188 " fill-opacity="1" fill-rule="nonzero"/></g><g fill="#000000" fill-opacity="1"><g transform="translate(19.551468, 21.426585)"><g><path d="M 0.609375 0 L 0.609375 -1.328125 L 0.078125 -1.328125 L 0.078125 -1.6875 L 1.515625 -1.6875 L 1.515625 -1.328125 L 0.984375 -1.328125 L 0.984375 0 Z M 0.609375 0 "/></g></g></g><g fill="#000000" fill-opacity="1"><g transform="translate(21.233916, 21.426585)"><g><path d="M 0.203125 0 L 0.203125 -1.6875 L 0.921875 -1.6875 C 1.046875 -1.6875 1.15625 -1.660156 1.25 -1.609375 C 1.34375 -1.566406 1.414062 -1.5 1.46875 -1.40625 C 1.519531 -1.320312 1.546875 -1.222656 1.546875 -1.109375 C 1.546875 -0.984375 1.519531 -0.875 1.46875 -0.78125 C 1.414062 -0.695312 1.335938 -0.628906 1.234375 -0.578125 L 1.578125 0 L 1.140625 0 L 0.84375 -0.53125 L 0.578125 -0.53125 L 0.578125 0 Z M 0.578125 -0.84375 L 0.875 -0.84375 C 0.96875 -0.84375 1.039062 -0.863281 1.09375 -0.90625 C 1.144531 -0.957031 1.171875 -1.023438 1.171875 -1.109375 C 1.171875 -1.179688 1.144531 -1.238281 1.09375 -1.28125 C 1.039062 -1.332031 0.96875 -1.359375 0.875 -1.359375 L 0.578125 -1.359375 Z M 0.578125 -0.84375 "/></g></g></g><g fill="#000000" fill-opacity="1"><g transform="translate(23.014905, 21.426585)"><g><path d="M 0.015625 0 L 0.6875 -1.6875 L 1.0625 -1.6875 L 1.734375 0 L 1.328125 0 L 1.21875 -0.296875 L 0.546875 -0.296875 L 0.4375 0 Z M 0.640625 -0.59375 L 1.109375 -0.59375 L 0.875 -1.203125 Z M 0.640625 -0.59375 "/></g></g></g><g fill="#000000" fill-opacity="1"><g transform="translate(24.858384, 21.426585)"><g><path d="M 0.671875 0 L 0.015625 -1.6875 L 0.4375 -1.6875 L 0.65625 -1.078125 L 0.859375 -0.546875 L 1.28125 -1.6875 L 1.6875 -1.6875 L 1.046875 0 Z M 0.671875 0 "/></g></g></g><g fill="#000000" fill-opacity="1"><g transform="translate(26.6586, 21.426585)"><g><path d="M 0.203125 0 L 0.203125 -1.6875 L 1.3125 -1.6875 L 1.3125 -1.359375 L 0.578125 -1.359375 L 0.578125 -1.015625 L 1.25 -1.015625 L 1.25 -0.6875 L 0.578125 -0.6875 L 0.578125 -0.328125 L 1.328125 -0.328125 L 1.328125 0 Z M 0.203125 0 "/></g></g></g><g fill="#000000" fill-opacity="1"><g transform="translate(28.204053, 21.426585)"><g><path d="M 0.203125 0 L 0.203125 -1.6875 L 0.578125 -1.6875 L 0.578125 -0.359375 L 1.328125 -0.359375 L 1.328125 0 Z M 0.203125 0 "/></g></g></g><g fill="#000000" fill-opacity="1"><g transform="translate(29.677405, 21.426585)"><g/></g></g><g fill="#000000" fill-opacity="1"><g transform="translate(30.331187, 21.426585)"><g><path d="M 0.5625 0 L 0.03125 -1.6875 L 0.4375 -1.6875 L 0.59375 -1.171875 L 0.765625 -0.625 L 0.96875 -1.171875 L 1.140625 -1.6875 L 1.5 -1.6875 L 1.6875 -1.171875 L 1.875 -0.609375 L 2.0625 -1.171875 L 2.21875 -1.6875 L 2.625 -1.6875 L 2.078125 0 L 1.703125 0 L 1.328125 -1.09375 L 0.9375 0 Z M 0.5625 0 "/></g></g></g><g fill="#000000" fill-opacity="1"><g transform="translate(33.068739, 21.426585)"><g><path d="M 1 0.03125 C 0.820312 0.03125 0.664062 -0.00390625 0.53125 -0.078125 C 0.394531 -0.148438 0.289062 -0.25 0.21875 -0.375 C 0.144531 -0.507812 0.109375 -0.664062 0.109375 -0.84375 C 0.109375 -1.007812 0.144531 -1.160156 0.21875 -1.296875 C 0.289062 -1.429688 0.394531 -1.535156 0.53125 -1.609375 C 0.664062 -1.679688 0.820312 -1.71875 1 -1.71875 C 1.175781 -1.71875 1.332031 -1.679688 1.46875 -1.609375 C 1.601562 -1.535156 1.707031 -1.429688 1.78125 -1.296875 C 1.863281 -1.160156 1.90625 -1.007812 1.90625 -0.84375 C 1.90625 -0.664062 1.863281 -0.507812 1.78125 -0.375 C 1.707031 -0.25 1.601562 -0.148438 1.46875 -0.078125 C 1.332031 -0.00390625 1.175781 0.03125 1 0.03125 Z M 0.5 -0.84375 C 0.5 -0.738281 0.519531 -0.644531 0.5625 -0.5625 C 0.601562 -0.488281 0.660156 -0.429688 0.734375 -0.390625 C 0.816406 -0.347656 0.90625 -0.328125 1 -0.328125 C 1.101562 -0.328125 1.191406 -0.347656 1.265625 -0.390625 C 1.335938 -0.429688 1.394531 -0.488281 1.4375 -0.5625 C 1.488281 -0.644531 1.515625 -0.738281 1.515625 -0.84375 C 1.515625 -0.945312 1.488281 -1.035156 1.4375 -1.109375 C 1.394531 -1.179688 1.335938 -1.238281 1.265625 -1.28125 C 1.191406 -1.332031 1.101562 -1.359375 1 -1.359375 C 0.90625 -1.359375 0.816406 -1.332031 0.734375 -1.28125 C 0.660156 -1.238281 0.601562 -1.179688 0.5625 -1.109375 C 0.519531 -1.035156 0.5 -0.945312 0.5 -0.84375 Z M 0.5 -0.84375 "/></g></g></g><g fill="#000000" fill-opacity="1"><g transform="translate(35.15977, 21.426585)"><g><path d="M 0.203125 0 L 0.203125 -1.6875 L 0.921875 -1.6875 C 1.046875 -1.6875 1.15625 -1.660156 1.25 -1.609375 C 1.34375 -1.566406 1.414062 -1.5 1.46875 -1.40625 C 1.519531 -1.320312 1.546875 -1.222656 1.546875 -1.109375 C 1.546875 -0.984375 1.519531 -0.875 1.46875 -0.78125 C 1.414062 -0.695312 1.335938 -0.628906 1.234375 -0.578125 L 1.578125 0 L 1.140625 0 L 0.84375 -0.53125 L 0.578125 -0.53125 L 0.578125 0 Z M 0.578125 -0.84375 L 0.875 -0.84375 C 0.96875 -0.84375 1.039062 -0.863281 1.09375 -0.90625 C 1.144531 -0.957031 1.171875 -1.023438 1.171875 -1.109375 C 1.171875 -1.179688 1.144531 -1.238281 1.09375 -1.28125 C 1.039062 -1.332031 0.96875 -1.359375 0.875 -1.359375 L 0.578125 -1.359375 Z M 0.578125 -0.84375 "/></g></g></g><g fill="#000000" fill-opacity="1"><g transform="translate(36.940759, 21.426585)"><g><path d="M 0.203125 0 L 0.203125 -1.6875 L 0.578125 -1.6875 L 0.578125 -0.359375 L 1.328125 -0.359375 L 1.328125 0 Z M 0.203125 0 "/></g></g></g><g fill="#000000" fill-opacity="1"><g transform="translate(38.41411, 21.426585)"><g><path d="M 0.203125 0 L 0.203125 -1.6875 L 0.875 -1.6875 C 1.050781 -1.6875 1.203125 -1.648438 1.328125 -1.578125 C 1.460938 -1.503906 1.566406 -1.40625 1.640625 -1.28125 C 1.710938 -1.15625 1.75 -1.007812 1.75 -0.84375 C 1.75 -0.675781 1.710938 -0.53125 1.640625 -0.40625 C 1.566406 -0.28125 1.460938 -0.179688 1.328125 -0.109375 C 1.203125 -0.0351562 1.050781 0 0.875 0 Z M 0.578125 -0.34375 L 0.859375 -0.34375 C 0.960938 -0.34375 1.050781 -0.363281 1.125 -0.40625 C 1.195312 -0.445312 1.253906 -0.503906 1.296875 -0.578125 C 1.335938 -0.660156 1.359375 -0.75 1.359375 -0.84375 C 1.359375 -0.9375 1.335938 -1.019531 1.296875 -1.09375 C 1.253906 -1.164062 1.195312 -1.222656 1.125 -1.265625 C 1.050781 -1.304688 0.960938 -1.328125 0.859375 -1.328125 L 0.578125 -1.328125 Z M 0.578125 -0.34375 "/></g></g></g><g fill="#000000" fill-opacity="1"><g transform="translate(40.358533, 21.426585)"><g/></g></g><g fill="#000000" fill-opacity="1"><g transform="translate(41.012316, 21.426585)"><g><path d="M 0.5625 0 L 0.03125 -1.6875 L 0.4375 -1.6875 L 0.59375 -1.171875 L 0.765625 -0.625 L 0.96875 -1.171875 L 1.140625 -1.6875 L 1.5 -1.6875 L 1.6875 -1.171875 L 1.875 -0.609375 L 2.0625 -1.171875 L 2.21875 -1.6875 L 2.625 -1.6875 L 2.078125 0 L 1.703125 0 L 1.328125 -1.09375 L 0.9375 0 Z M 0.5625 0 "/></g></g></g><g fill="#000000" fill-opacity="1"><g transform="translate(43.74987, 21.426585)"><g><path d="M 0.203125 0 L 0.203125 -1.6875 L 0.578125 -1.6875 L 0.578125 0 Z M 0.203125 0 "/></g></g></g><g fill="#000000" fill-opacity="1"><g transform="translate(44.624769, 21.426585)"><g><path d="M 0.609375 0 L 0.609375 -1.328125 L 0.078125 -1.328125 L 0.078125 -1.6875 L 1.515625 -1.6875 L 1.515625 -1.328125 L 0.984375 -1.328125 L 0.984375 0 Z M 0.609375 0 "/></g></g></g><g fill="#000000" fill-opacity="1"><g transform="translate(46.307218, 21.426585)"><g><path d="M 1.25 0 L 1.25 -0.671875 L 0.578125 -0.671875 L 0.578125 0 L 0.203125 0 L 0.203125 -1.6875 L 0.578125 -1.6875 L 0.578125 -1.03125 L 1.25 -1.03125 L 1.25 -1.6875 L 1.625 -1.6875 L 1.625 0 Z M 1.25 0 "/></g></g></g><g fill="#000000" fill-opacity="1"><g transform="translate(48.2228, 21.426585)"><g/></g></g><g fill="#000000" fill-opacity="1"><g transform="translate(48.876584, 21.426585)"><g><path d="M 0.96875 0.03125 C 0.800781 0.03125 0.648438 -0.00390625 0.515625 -0.078125 C 0.390625 -0.148438 0.289062 -0.25 0.21875 -0.375 C 0.144531 -0.507812 0.109375 -0.664062 0.109375 -0.84375 C 0.109375 -1.007812 0.144531 -1.160156 0.21875 -1.296875 C 0.289062 -1.429688 0.390625 -1.535156 0.515625 -1.609375 C 0.648438 -1.679688 0.800781 -1.71875 0.96875 -1.71875 C 1.113281 -1.71875 1.242188 -1.6875 1.359375 -1.625 C 1.484375 -1.570312 1.582031 -1.492188 1.65625 -1.390625 C 1.738281 -1.296875 1.796875 -1.179688 1.828125 -1.046875 L 1.4375 -1.046875 C 1.40625 -1.140625 1.347656 -1.210938 1.265625 -1.265625 C 1.179688 -1.328125 1.085938 -1.359375 0.984375 -1.359375 C 0.890625 -1.359375 0.804688 -1.332031 0.734375 -1.28125 C 0.660156 -1.238281 0.601562 -1.179688 0.5625 -1.109375 C 0.519531 -1.035156 0.5 -0.945312 0.5 -0.84375 C 0.5 -0.738281 0.519531 -0.644531 0.5625 -0.5625 C 0.601562 -0.488281 0.660156 -0.429688 0.734375 -0.390625 C 0.804688 -0.347656 0.890625 -0.328125 0.984375 -0.328125 C 1.085938 -0.328125 1.179688 -0.351562 1.265625 -0.40625 C 1.347656 -0.46875 1.410156 -0.546875 1.453125 -0.640625 L 1.84375 -0.640625 C 1.820312 -0.503906 1.769531 -0.382812 1.6875 -0.28125 C 1.601562 -0.1875 1.5 -0.109375 1.375 -0.046875 C 1.257812 0.00390625 1.125 0.03125 0.96875 0.03125 Z M 0.96875 0.03125 "/></g></g></g><g fill="#000000" fill-opacity="1"><g transform="translate(50.905127, 21.426585)"><g><path d="M 0.203125 0 L 0.203125 -1.6875 L 0.578125 -1.6875 L 0.578125 -0.359375 L 1.328125 -0.359375 L 1.328125 0 Z M 0.203125 0 "/></g></g></g><g fill="#000000" fill-opacity="1"><g transform="translate(52.378478, 21.426585)"><g><path d="M 0.015625 0 L 0.6875 -1.6875 L 1.0625 -1.6875 L 1.734375 0 L 1.328125 0 L 1.21875 -0.296875 L 0.546875 -0.296875 L 0.4375 0 Z M 0.640625 -0.59375 L 1.109375 -0.59375 L 0.875 -1.203125 Z M 0.640625 -0.59375 "/></g></g></g><g fill="#000000" fill-opacity="1"><g transform="translate(54.221958, 21.426585)"><g><path d="M 0.796875 0.03125 C 0.648438 0.03125 0.523438 0.0078125 0.421875 -0.03125 C 0.316406 -0.0820312 0.238281 -0.148438 0.1875 -0.234375 C 0.132812 -0.316406 0.109375 -0.414062 0.109375 -0.53125 L 0.484375 -0.53125 C 0.484375 -0.457031 0.507812 -0.394531 0.5625 -0.34375 C 0.613281 -0.300781 0.6875 -0.28125 0.78125 -0.28125 C 0.863281 -0.28125 0.925781 -0.296875 0.96875 -0.328125 C 1.019531 -0.359375 1.046875 -0.398438 1.046875 -0.453125 C 1.046875 -0.515625 1.015625 -0.5625 0.953125 -0.59375 C 0.898438 -0.632812 0.816406 -0.671875 0.703125 -0.703125 C 0.503906 -0.742188 0.359375 -0.804688 0.265625 -0.890625 C 0.171875 -0.972656 0.125 -1.082031 0.125 -1.21875 C 0.125 -1.375 0.175781 -1.492188 0.28125 -1.578125 C 0.394531 -1.671875 0.550781 -1.71875 0.75 -1.71875 C 0.882812 -1.71875 1 -1.691406 1.09375 -1.640625 C 1.1875 -1.597656 1.257812 -1.535156 1.3125 -1.453125 C 1.375 -1.367188 1.40625 -1.269531 1.40625 -1.15625 L 1.03125 -1.15625 C 1.03125 -1.238281 1.003906 -1.300781 0.953125 -1.34375 C 0.910156 -1.382812 0.84375 -1.40625 0.75 -1.40625 C 0.675781 -1.40625 0.613281 -1.390625 0.5625 -1.359375 C 0.519531 -1.328125 0.5 -1.285156 0.5 -1.234375 C 0.5 -1.179688 0.519531 -1.132812 0.5625 -1.09375 C 0.613281 -1.0625 0.707031 -1.03125 0.84375 -1 C 1.050781 -0.945312 1.203125 -0.878906 1.296875 -0.796875 C 1.390625 -0.710938 1.4375 -0.601562 1.4375 -0.46875 C 1.4375 -0.3125 1.378906 -0.1875 1.265625 -0.09375 C 1.148438 -0.0078125 0.992188 0.03125 0.796875 0.03125 Z M 0.796875 0.03125 "/></g></g></g><g fill="#000000" fill-opacity="1"><g transform="translate(55.851532, 21.426585)"><g><path d="M 0.796875 0.03125 C 0.648438 0.03125 0.523438 0.0078125 0.421875 -0.03125 C 0.316406 -0.0820312 0.238281 -0.148438 0.1875 -0.234375 C 0.132812 -0.316406 0.109375 -0.414062 0.109375 -0.53125 L 0.484375 -0.53125 C 0.484375 -0.457031 0.507812 -0.394531 0.5625 -0.34375 C 0.613281 -0.300781 0.6875 -0.28125 0.78125 -0.28125 C 0.863281 -0.28125 0.925781 -0.296875 0.96875 -0.328125 C 1.019531 -0.359375 1.046875 -0.398438 1.046875 -0.453125 C 1.046875 -0.515625 1.015625 -0.5625 0.953125 -0.59375 C 0.898438 -0.632812 0.816406 -0.671875 0.703125 -0.703125 C 0.503906 -0.742188 0.359375 -0.804688 0.265625 -0.890625 C 0.171875 -0.972656 0.125 -1.082031 0.125 -1.21875 C 0.125 -1.375 0.175781 -1.492188 0.28125 -1.578125 C 0.394531 -1.671875 0.550781 -1.71875 0.75 -1.71875 C 0.882812 -1.71875 1 -1.691406 1.09375 -1.640625 C 1.1875 -1.597656 1.257812 -1.535156 1.3125 -1.453125 C 1.375 -1.367188 1.40625 -1.269531 1.40625 -1.15625 L 1.03125 -1.15625 C 1.03125 -1.238281 1.003906 -1.300781 0.953125 -1.34375 C 0.910156 -1.382812 0.84375 -1.40625 0.75 -1.40625 C 0.675781 -1.40625 0.613281 -1.390625 0.5625 -1.359375 C 0.519531 -1.328125 0.5 -1.285156 0.5 -1.234375 C 0.5 -1.179688 0.519531 -1.132812 0.5625 -1.09375 C 0.613281 -1.0625 0.707031 -1.03125 0.84375 -1 C 1.050781 -0.945312 1.203125 -0.878906 1.296875 -0.796875 C 1.390625 -0.710938 1.4375 -0.601562 1.4375 -0.46875 C 1.4375 -0.3125 1.378906 -0.1875 1.265625 -0.09375 C 1.148438 -0.0078125 0.992188 0.03125 0.796875 0.03125 Z M 0.796875 0.03125 "/></g></g></g></svg>